<svg xmlns="http://www.w3.org/2000/svg" width="38" height="38" fill="none"><path fill="currentColor" d="M19 0C8.504 0 0 8.504 0 19s8.504 19 19 19 19-8.504 19-19S29.496 0 19 0Zm6.129 12.871a2.449 2.449 0 0 1 2.452 2.452 2.449 2.449 0 0 1-2.452 2.451 2.449 2.449 0 0 1-2.452-2.451 2.449 2.449 0 0 1 2.452-2.452ZM11.645 31.258c-2.03 0-3.677-1.609-3.677-3.6 0-1.533 2.183-4.628 3.187-5.961a.61.61 0 0 1 .98 0c1.004 1.333 3.188 4.428 3.188 5.96 0 1.992-1.648 3.601-3.678 3.601Zm1.226-13.484a2.449 2.449 0 0 1-2.452-2.451 2.449 2.449 0 0 1 2.452-2.452 2.449 2.449 0 0 1 2.452 2.452 2.449 2.449 0 0 1-2.452 2.451Zm13.04 11.814A8.989 8.989 0 0 0 19 26.355c-1.624 0-1.624-2.452 0-2.452a11.4 11.4 0 0 1 8.788 4.122c1.057 1.257-.859 2.796-1.878 1.563Z"/></svg>